<?xml version="1.0" encoding="utf-8"?><!-- Uploaded to: SVG Repo, www.svgrepo.com, Generator: SVG Repo Mixer Tools -->
<svg width="800px" height="800px" viewBox="0 0 24 24" fill="none" xmlns="http://www.w3.org/2000/svg">
<path d="M12 12.77C11.9003 12.7695 11.8017 12.7491 11.71 12.71C11.6187 12.6759 11.5366 12.6212 11.47 12.55C11.3296 12.4094 11.2507 12.2188 11.2507 12.02C11.2507 11.8213 11.3296 11.6306 11.47 11.49C11.5394 11.4222 11.6208 11.368 11.71 11.33C11.8016 11.2904 11.9003 11.2699 12 11.2699C12.0998 11.2699 12.1985 11.2904 12.29 11.33C12.3793 11.368 12.4607 11.4222 12.53 11.49C12.6705 11.6306 12.7494 11.8213 12.7494 12.02C12.7494 12.2188 12.6705 12.4094 12.53 12.55C12.4635 12.6212 12.3813 12.6759 12.29 12.71C12.1983 12.7491 12.0997 12.7695 12 12.77Z" fill="#000000"/>
<path d="M17 20.79H7.00001C6.50249 20.7927 6.00941 20.6963 5.54949 20.5066C5.08957 20.3168 4.67202 20.0374 4.32114 19.6847C3.97027 19.3319 3.69309 18.9129 3.50576 18.452C3.31843 17.9911 3.2247 17.4975 3.23001 17V7C3.23 6.50586 3.32766 6.01658 3.51736 5.5603C3.70707 5.10402 3.98508 4.68974 4.33542 4.34125C4.68576 3.99277 5.10152 3.71697 5.55881 3.52969C6.01609 3.34242 6.50587 3.24736 7.00001 3.25H17C17.4941 3.24736 17.9839 3.34242 18.4412 3.52969C18.8985 3.71697 19.3143 3.99277 19.6646 4.34125C20.0149 4.68974 20.293 5.10402 20.4827 5.5603C20.6724 6.01658 20.77 6.50586 20.77 7V17C20.7753 17.4975 20.6816 17.9911 20.4943 18.452C20.3069 18.9129 20.0298 19.3319 19.6789 19.6847C19.328 20.0374 18.9104 20.3168 18.4505 20.5066C17.9906 20.6963 17.4975 20.7927 17 20.79ZM7.00001 4.75C6.70286 4.74736 6.40813 4.80361 6.13283 4.9155C5.85754 5.02739 5.60713 5.1927 5.39608 5.4019C5.18502 5.61109 5.0175 5.86002 4.90318 6.13432C4.78885 6.40861 4.73 6.70284 4.73001 7V17C4.72466 17.3005 4.77956 17.5991 4.89149 17.878C5.00342 18.1569 5.17011 18.4106 5.3817 18.6241C5.5933 18.8375 5.84551 19.0065 6.12346 19.1208C6.40141 19.2352 6.69946 19.2927 7.00001 19.29H17C17.3006 19.2927 17.5986 19.2352 17.8766 19.1208C18.1545 19.0065 18.4067 18.8375 18.6183 18.6241C18.8299 18.4106 18.9966 18.1569 19.1085 17.878C19.2205 17.5991 19.2754 17.3005 19.27 17V7C19.27 6.70284 19.2112 6.40861 19.0968 6.13432C18.9825 5.86002 18.815 5.61109 18.6039 5.4019C18.3929 5.1927 18.1425 5.02739 17.8672 4.9155C17.5919 4.80361 17.2972 4.74736 17 4.75H7.00001Z" fill="#000000"/>
</svg>