<?xml version="1.0" encoding="utf-8"?><!-- Uploaded to: SVG Repo, www.svgrepo.com, Generator: SVG Repo Mixer Tools -->
<svg width="800px" height="800px" viewBox="0 0 24 24" fill="none" xmlns="http://www.w3.org/2000/svg">
<path d="M8.79 9.73C8.68986 9.73538 8.58966 9.72062 8.49532 9.6866C8.40098 9.65257 8.31442 9.59998 8.24077 9.53191C8.16711 9.46385 8.10785 9.38171 8.0665 9.29035C8.02514 9.19898 8.00253 9.10025 8 9C7.99969 8.90022 8.02013 8.80146 8.06 8.71C8.09406 8.6187 8.14883 8.53655 8.22 8.47C8.32384 8.36586 8.45634 8.29503 8.60061 8.26653C8.74488 8.23803 8.89437 8.25317 9.03 8.31C9.12542 8.34155 9.21139 8.39657 9.28 8.47C9.34779 8.53936 9.40205 8.62075 9.44 8.71C9.49378 8.79836 9.52789 8.89727 9.54 9C9.53983 9.19884 9.4607 9.38948 9.32 9.53C9.24869 9.60012 9.16354 9.65461 9.07 9.69C8.98058 9.7231 8.88512 9.73674 8.79 9.73Z" fill="#000000"/>
<path d="M15.17 9.73C15.0735 9.73041 14.9779 9.70994 14.89 9.67C14.7976 9.63232 14.7129 9.5781 14.64 9.51C14.5722 9.44064 14.518 9.35925 14.48 9.27C14.4435 9.1845 14.4231 9.09294 14.42 9C14.4197 8.90022 14.4401 8.80146 14.48 8.71C14.518 8.62075 14.5722 8.53936 14.64 8.47C14.7103 8.39865 14.7958 8.34397 14.89 8.31C15.0256 8.25317 15.1751 8.23803 15.3194 8.26653C15.4637 8.29503 15.5962 8.36586 15.7 8.47C15.8407 8.61052 15.9198 8.80115 15.92 9C15.9177 9.0986 15.9009 9.19633 15.87 9.29C15.8285 9.3797 15.7709 9.46104 15.7 9.53C15.5563 9.66339 15.366 9.73518 15.17 9.73Z" fill="#000000"/>
<path d="M8.78999 15.73C8.64175 15.7299 8.49687 15.6858 8.37366 15.6034C8.25044 15.521 8.15441 15.4039 8.0977 15.2669C8.04099 15.13 8.02614 14.9793 8.05502 14.8339C8.08391 14.6885 8.15523 14.5549 8.25999 14.45C8.36383 14.3459 8.49633 14.275 8.6406 14.2465C8.78487 14.218 8.93436 14.2332 9.06999 14.29C9.16541 14.3216 9.25137 14.3766 9.31999 14.45C9.46044 14.5906 9.53933 14.7813 9.53933 14.98C9.53933 15.1788 9.46044 15.3694 9.31999 15.51C9.24867 15.5801 9.16353 15.6346 9.06999 15.67C8.98207 15.71 8.88656 15.7304 8.78999 15.73Z" fill="#000000"/>
<path d="M15.17 15.73C15.0735 15.7304 14.9779 15.71 14.89 15.67C14.7976 15.6323 14.7129 15.5781 14.64 15.51C14.4993 15.3695 14.4202 15.1789 14.42 14.98C14.4197 14.8802 14.4401 14.7815 14.48 14.69C14.518 14.6008 14.5722 14.5194 14.64 14.45C14.7086 14.3766 14.7946 14.3216 14.89 14.29C15.0256 14.2332 15.1751 14.218 15.3194 14.2465C15.4637 14.275 15.5962 14.3459 15.7 14.45C15.7709 14.519 15.8285 14.6003 15.87 14.69C15.902 14.7834 15.9188 14.8813 15.92 14.98C15.92 15.1789 15.841 15.3697 15.7003 15.5103C15.5597 15.651 15.3689 15.73 15.17 15.73Z" fill="#000000"/>
<path d="M17 20.77H7C6.50418 20.7727 6.01275 20.677 5.55416 20.4884C5.09556 20.2999 4.67891 20.0223 4.3283 19.6717C3.97769 19.3211 3.7001 18.9044 3.51158 18.4459C3.32306 17.9873 3.22735 17.4958 3.23 17V7C3.22735 6.50418 3.32306 6.01275 3.51158 5.55416C3.7001 5.09556 3.97769 4.67891 4.3283 4.3283C4.67891 3.97769 5.09556 3.7001 5.55416 3.51158C6.01275 3.32306 6.50418 3.22735 7 3.23H17C17.4958 3.22735 17.9873 3.32306 18.4459 3.51158C18.9044 3.7001 19.3211 3.97769 19.6717 4.3283C20.0223 4.67891 20.2999 5.09556 20.4884 5.55416C20.677 6.01275 20.7727 6.50418 20.77 7V17C20.7727 17.4958 20.677 17.9873 20.4884 18.4459C20.2999 18.9044 20.0223 19.3211 19.6717 19.6717C19.3211 20.0223 18.9044 20.2999 18.4459 20.4884C17.9873 20.677 17.4958 20.7727 17 20.77ZM7 4.73C6.70116 4.72734 6.40478 4.78423 6.12817 4.89736C5.85155 5.01049 5.60025 5.1776 5.38892 5.38892C5.1776 5.60025 5.01049 5.85155 4.89736 6.12817C4.78423 6.40478 4.72734 6.70116 4.73 7V17C4.72734 17.2988 4.78423 17.5952 4.89736 17.8718C5.01049 18.1485 5.1776 18.3998 5.38892 18.6111C5.60025 18.8224 5.85155 18.9895 6.12817 19.1026C6.40478 19.2158 6.70116 19.2727 7 19.27H17C17.2988 19.2727 17.5952 19.2158 17.8718 19.1026C18.1485 18.9895 18.3998 18.8224 18.6111 18.6111C18.8224 18.3998 18.9895 18.1485 19.1026 17.8718C19.2158 17.5952 19.2727 17.2988 19.27 17V7C19.2727 6.70116 19.2158 6.40478 19.1026 6.12817C18.9895 5.85155 18.8224 5.60025 18.6111 5.38892C18.3998 5.1776 18.1485 5.01049 17.8718 4.89736C17.5952 4.78423 17.2988 4.72734 17 4.73H7Z" fill="#000000"/>
</svg>