<?xml version="1.0" encoding="utf-8"?><!-- Uploaded to: SVG Repo, www.svgrepo.com, Generator: SVG Repo Mixer Tools -->
<svg width="800px" height="800px" viewBox="0 0 24 24" fill="none" xmlns="http://www.w3.org/2000/svg">
<path d="M8.5602 9.75C8.44167 9.74731 8.32546 9.71655 8.22112 9.66025C8.11678 9.60396 8.02726 9.52372 7.95993 9.42614C7.89259 9.32855 7.84936 9.21639 7.83376 9.09886C7.81816 8.98133 7.83065 8.86177 7.8702 8.75C7.90426 8.6587 7.95903 8.57655 8.0302 8.51C8.13404 8.40586 8.26654 8.33503 8.41081 8.30653C8.55508 8.27803 8.70457 8.29317 8.8402 8.35C8.93374 8.38539 9.01888 8.43988 9.0902 8.51C9.15799 8.57936 9.21225 8.66075 9.2502 8.75C9.30923 8.88689 9.32554 9.03842 9.29699 9.18474C9.26844 9.33106 9.19636 9.46534 9.0902 9.57C9.01888 9.64012 8.93374 9.69461 8.8402 9.73C8.74933 9.75636 8.6539 9.76318 8.5602 9.75Z" fill="#000000"/>
<path d="M11.7702 12.77C11.5713 12.77 11.3805 12.691 11.2399 12.5503C11.0992 12.4097 11.0202 12.2189 11.0202 12.02C11.0225 11.9214 11.0393 11.8237 11.0702 11.73C11.1117 11.6403 11.1694 11.559 11.2402 11.49C11.3096 11.4222 11.391 11.3679 11.4802 11.33C11.5701 11.2906 11.6671 11.2703 11.7652 11.2703C11.8633 11.2703 11.9603 11.2906 12.0502 11.33C12.1437 11.3654 12.2289 11.4199 12.3002 11.49C12.368 11.5594 12.4223 11.6407 12.4602 11.73C12.5192 11.8669 12.5355 12.0184 12.507 12.1647C12.4784 12.3111 12.4064 12.4453 12.3002 12.55C12.1585 12.6889 11.9686 12.7677 11.7702 12.77Z" fill="#000000"/>
<path d="M14.9402 15.75C14.8438 15.7492 14.7485 15.7288 14.6602 15.69C14.5667 15.6546 14.4815 15.6001 14.4102 15.53C14.2698 15.3894 14.1909 15.1987 14.1909 15C14.1909 14.8012 14.2698 14.6106 14.4102 14.47C14.4815 14.3999 14.5667 14.3454 14.6602 14.31C14.7959 14.2532 14.9453 14.238 15.0896 14.2665C15.2339 14.295 15.3664 14.3659 15.4702 14.47C15.575 14.5749 15.6463 14.7085 15.6752 14.8539C15.7041 14.9993 15.6892 15.15 15.6325 15.2869C15.5758 15.4239 15.4798 15.541 15.3566 15.6234C15.2333 15.7058 15.0885 15.7499 14.9402 15.75Z" fill="#000000"/>
<path d="M16.7702 20.79H6.77021C6.27269 20.7927 5.77961 20.6963 5.31969 20.5066C4.85978 20.3168 4.44222 20.0374 4.09134 19.6847C3.74047 19.3319 3.4633 18.9129 3.27597 18.452C3.08864 17.9911 2.9949 17.4975 3.00021 17V7C3.00021 6.50586 3.09786 6.01658 3.28757 5.5603C3.47727 5.10402 3.75528 4.68974 4.10563 4.34125C4.45597 3.99277 4.87173 3.71697 5.32901 3.52969C5.78629 3.34242 6.27608 3.24736 6.77021 3.25H16.7702C17.2644 3.24736 17.7541 3.34242 18.2114 3.52969C18.6687 3.71697 19.0845 3.99277 19.4348 4.34125C19.7851 4.68974 20.0632 5.10402 20.2529 5.5603C20.4426 6.01658 20.5402 6.50586 20.5402 7V17C20.5455 17.4975 20.4518 17.9911 20.2645 18.452C20.0771 18.9129 19.8 19.3319 19.4491 19.6847C19.0982 20.0374 18.6807 20.3168 18.2207 20.5066C17.7608 20.6963 17.2677 20.7927 16.7702 20.79ZM6.77021 4.75C6.47306 4.74736 6.17833 4.80361 5.90303 4.9155C5.62774 5.02739 5.37733 5.1927 5.16628 5.4019C4.95522 5.61109 4.7877 5.86002 4.67338 6.13432C4.55906 6.40861 4.5002 6.70284 4.50021 7V17C4.49486 17.3005 4.54977 17.5991 4.6617 17.878C4.77363 18.1569 4.94031 18.4106 5.1519 18.6241C5.3635 18.8375 5.61572 19.0065 5.89367 19.1208C6.17162 19.2352 6.46966 19.2927 6.77021 19.29H16.7702C17.0708 19.2927 17.3688 19.2352 17.6468 19.1208C17.9247 19.0065 18.1769 18.8375 18.3885 18.6241C18.6001 18.4106 18.7668 18.1569 18.8787 17.878C18.9907 17.5991 19.0456 17.3005 19.0402 17V7C19.0402 6.70284 18.9814 6.40861 18.8671 6.13432C18.7527 5.86002 18.5852 5.61109 18.3741 5.4019C18.1631 5.1927 17.9127 5.02739 17.6374 4.9155C17.3621 4.80361 17.0674 4.74736 16.7702 4.75H6.77021Z" fill="#000000"/>
</svg>