<?xml version="1.0" encoding="utf-8"?><!-- Uploaded to: SVG Repo, www.svgrepo.com, Generator: SVG Repo Mixer Tools -->
<svg width="800px" height="800px" viewBox="0 0 24 24" fill="none" xmlns="http://www.w3.org/2000/svg">
<path d="M8.79001 9.73C8.69023 9.73031 8.59147 9.70988 8.50001 9.67C8.41076 9.63205 8.32936 9.57779 8.26001 9.51C8.18883 9.44345 8.13406 9.36129 8.10001 9.27C8.04098 9.13311 8.02467 8.98158 8.05322 8.83526C8.08177 8.68894 8.15384 8.55466 8.26001 8.45C8.32656 8.37882 8.40871 8.32405 8.50001 8.29C8.58986 8.25062 8.6869 8.23029 8.78501 8.23029C8.88311 8.23029 8.98015 8.25062 9.07001 8.29C9.16543 8.32155 9.25139 8.37657 9.32001 8.45C9.3878 8.51935 9.44206 8.60075 9.48001 8.69C9.5227 8.78762 9.54319 8.8935 9.54001 9C9.53948 9.09969 9.51908 9.19828 9.48001 9.29C9.44206 9.37925 9.3878 9.46064 9.32001 9.53C9.24869 9.60011 9.16355 9.65461 9.07001 9.69C8.98058 9.7231 8.88512 9.73674 8.79001 9.73Z" fill="#000000"/>
<path d="M12 12.75C11.9002 12.7503 11.8015 12.7299 11.71 12.69C11.6208 12.6521 11.5394 12.5978 11.47 12.53C11.3296 12.3894 11.2507 12.1988 11.2507 12C11.2507 11.8013 11.3296 11.6106 11.47 11.47C11.5394 11.4022 11.6208 11.348 11.71 11.31C11.7999 11.2706 11.8969 11.2503 11.995 11.2503C12.0931 11.2503 12.1902 11.2706 12.28 11.31C12.3736 11.3454 12.4587 11.3999 12.53 11.47C12.6705 11.6106 12.7494 11.8013 12.7494 12C12.7494 12.1988 12.6705 12.3894 12.53 12.53C12.4587 12.6001 12.3736 12.6546 12.28 12.69C12.1921 12.7299 12.0966 12.7504 12 12.75Z" fill="#000000"/>
<path d="M15.17 9.73C15.0734 9.73041 14.9779 9.70994 14.89 9.67C14.7976 9.63232 14.7129 9.57809 14.64 9.51C14.5722 9.44064 14.5179 9.35925 14.48 9.27C14.4404 9.17845 14.4199 9.07975 14.4199 8.98C14.4199 8.88024 14.4404 8.78154 14.48 8.69C14.5179 8.60075 14.5722 8.51935 14.64 8.45C14.7103 8.37864 14.7957 8.32397 14.89 8.29C14.9799 8.25062 15.0769 8.23029 15.175 8.23029C15.2731 8.23029 15.3701 8.25062 15.46 8.29C15.5513 8.32405 15.6334 8.37882 15.7 8.45C15.7708 8.51895 15.8284 8.60029 15.87 8.69C15.9019 8.7834 15.9188 8.88129 15.92 8.98C15.9198 9.17884 15.8407 9.36948 15.7 9.51C15.6306 9.57779 15.5492 9.63205 15.46 9.67C15.3685 9.70988 15.2698 9.73031 15.17 9.73Z" fill="#000000"/>
<path d="M8.79 15.73C8.69022 15.7303 8.59147 15.7099 8.5 15.67C8.41075 15.6321 8.32936 15.5778 8.26 15.51C8.18883 15.4435 8.13406 15.3613 8.1 15.27C8.04955 15.1873 8.01559 15.0956 8 15C7.99969 14.9002 8.02013 14.8015 8.06 14.71C8.1351 14.529 8.27896 14.3851 8.46 14.31C8.54986 14.2706 8.6469 14.2503 8.745 14.2503C8.84311 14.2503 8.94015 14.2706 9.03 14.31C9.12542 14.3416 9.21139 14.3966 9.28 14.47C9.34779 14.5394 9.40205 14.6208 9.44 14.71C9.47988 14.8015 9.50031 14.9002 9.5 15C9.49983 15.1988 9.4207 15.3895 9.28 15.53C9.20869 15.6001 9.12354 15.6546 9.03 15.69C8.95311 15.7179 8.87177 15.7314 8.79 15.73Z" fill="#000000"/>
<path d="M15.17 15.73C15.0735 15.7304 14.9779 15.7099 14.89 15.67C14.7976 15.6323 14.7129 15.5781 14.64 15.51C14.5722 15.4406 14.518 15.3592 14.48 15.27C14.4409 15.1783 14.4205 15.0797 14.42 14.98C14.4197 14.8802 14.4401 14.7815 14.48 14.69C14.518 14.6007 14.5722 14.5194 14.64 14.45C14.7103 14.3786 14.7958 14.324 14.89 14.29C14.9799 14.2506 15.0769 14.2303 15.175 14.2303C15.2731 14.2303 15.3702 14.2506 15.46 14.29C15.5513 14.3241 15.6335 14.3788 15.7 14.45C15.8407 14.5905 15.9198 14.7812 15.92 14.98C15.9177 15.0786 15.9009 15.1763 15.87 15.27C15.8285 15.3597 15.7709 15.441 15.7 15.51C15.6307 15.5778 15.5493 15.632 15.46 15.67C15.3686 15.7099 15.2698 15.7303 15.17 15.73Z" fill="#000000"/>
<path d="M17 20.77H7C6.50418 20.7727 6.01275 20.677 5.55416 20.4884C5.09556 20.2999 4.67891 20.0223 4.3283 19.6717C3.97769 19.3211 3.7001 18.9044 3.51158 18.4459C3.32306 17.9873 3.22735 17.4958 3.23 17V7C3.22735 6.50418 3.32306 6.01275 3.51158 5.55416C3.7001 5.09556 3.97769 4.67891 4.3283 4.3283C4.67891 3.97769 5.09556 3.7001 5.55416 3.51158C6.01275 3.32306 6.50418 3.22735 7 3.23H17C17.4958 3.22735 17.9873 3.32306 18.4459 3.51158C18.9044 3.7001 19.3211 3.97769 19.6717 4.3283C20.0223 4.67891 20.2999 5.09556 20.4884 5.55416C20.677 6.01275 20.7727 6.50418 20.77 7V17C20.7727 17.4958 20.677 17.9873 20.4884 18.4459C20.2999 18.9044 20.0223 19.3211 19.6717 19.6717C19.3211 20.0223 18.9044 20.2999 18.4459 20.4884C17.9873 20.677 17.4958 20.7727 17 20.77ZM7 4.73C6.70116 4.72734 6.40478 4.78423 6.12817 4.89736C5.85155 5.01049 5.60025 5.1776 5.38892 5.38892C5.1776 5.60025 5.01049 5.85155 4.89736 6.12817C4.78423 6.40478 4.72734 6.70116 4.73 7V17C4.72734 17.2988 4.78423 17.5952 4.89736 17.8718C5.01049 18.1485 5.1776 18.3998 5.38892 18.6111C5.60025 18.8224 5.85155 18.9895 6.12817 19.1026C6.40478 19.2158 6.70116 19.2727 7 19.27H17C17.2988 19.2727 17.5952 19.2158 17.8718 19.1026C18.1485 18.9895 18.3998 18.8224 18.6111 18.6111C18.8224 18.3998 18.9895 18.1485 19.1026 17.8718C19.2158 17.5952 19.2727 17.2988 19.27 17V7C19.2727 6.70116 19.2158 6.40478 19.1026 6.12817C18.9895 5.85155 18.8224 5.60025 18.6111 5.38892C18.3998 5.1776 18.1485 5.01049 17.8718 4.89736C17.5952 4.78423 17.2988 4.72734 17 4.73H7Z" fill="#000000"/>
</svg>