<?xml version="1.0" encoding="utf-8"?><!-- Uploaded to: SVG Repo, www.svgrepo.com, Generator: SVG Repo Mixer Tools -->
<svg width="800px" height="800px" viewBox="0 0 24 24" fill="none" xmlns="http://www.w3.org/2000/svg">
<path d="M9.54 11C9.43986 11.0012 9.34049 10.9824 9.24775 10.9446C9.155 10.9068 9.07076 10.8509 9 10.78C8.93221 10.7106 8.87795 10.6292 8.84 10.54C8.80012 10.4485 8.77969 10.3498 8.78 10.25C8.7827 10.1315 8.81345 10.0153 8.86975 9.91092C8.92605 9.80657 9.00628 9.71706 9.10387 9.64973C9.20145 9.58239 9.31361 9.53915 9.43114 9.52355C9.54868 9.50796 9.66823 9.52045 9.78 9.56C9.86925 9.59795 9.95065 9.65221 10.02 9.72C10.1607 9.86052 10.2398 10.0512 10.24 10.25C10.2403 10.3498 10.2199 10.4485 10.18 10.54C10.1049 10.721 9.96105 10.8649 9.78 10.94C9.70406 10.9737 9.62287 10.994 9.54 11Z" fill="#000000"/>
<path d="M13.46 15C13.2611 15 13.0703 14.921 12.9297 14.7803C12.789 14.6397 12.71 14.4489 12.71 14.25C12.6948 14.1539 12.6948 14.0561 12.71 13.96C12.7516 13.8703 12.8092 13.789 12.88 13.72C12.9466 13.6488 13.0287 13.5941 13.12 13.56C13.2099 13.5206 13.3069 13.5003 13.405 13.5003C13.5031 13.5003 13.6002 13.5206 13.69 13.56C13.7854 13.5916 13.8714 13.6466 13.94 13.72C14.0078 13.7894 14.0621 13.8708 14.1 13.96C14.1399 14.0515 14.1603 14.1502 14.16 14.25C14.1598 14.4488 14.0807 14.6395 13.94 14.78C13.8687 14.8501 13.7836 14.9046 13.69 14.94C13.6175 14.9735 13.5396 14.9939 13.46 15Z" fill="#000000"/>
<path d="M16.79 20.79H6.79C6.29081 20.7954 5.79556 20.701 5.33332 20.5124C4.87108 20.3238 4.45114 20.0449 4.09814 19.6919C3.74513 19.3389 3.46616 18.9189 3.27759 18.4567C3.08902 17.9944 2.99465 17.4992 3 17V7C3 6.00544 3.39509 5.05161 4.09835 4.34835C4.80161 3.64509 5.75544 3.25 6.75 3.25H16.75C17.2458 3.24471 17.7378 3.3378 18.1974 3.52389C18.6569 3.70997 19.0751 3.98536 19.4275 4.33411C19.78 4.68285 20.0598 5.09804 20.2508 5.55564C20.4417 6.01323 20.54 6.50416 20.54 7V17C20.5453 17.4958 20.4522 17.9878 20.2661 18.4473C20.08 18.9069 19.8046 19.3251 19.4559 19.6775C19.1071 20.03 18.692 20.3098 18.2344 20.5008C17.7768 20.6917 17.2858 20.79 16.79 20.79ZM6.79 4.79C6.49452 4.7847 6.20088 4.83766 5.92587 4.94587C5.65085 5.05407 5.39985 5.21539 5.18719 5.42062C4.97454 5.62585 4.8044 5.87096 4.68649 6.14195C4.56858 6.41294 4.50521 6.70451 4.5 7V17C4.5 17.5967 4.73706 18.169 5.15901 18.591C5.58097 19.0129 6.15326 19.25 6.75 19.25H16.75C17.0455 19.25 17.3381 19.1918 17.611 19.0787C17.884 18.9657 18.1321 18.7999 18.341 18.591C18.5499 18.3821 18.7157 18.134 18.8287 17.861C18.9418 17.5881 19 17.2955 19 17V7C19 6.70453 18.9418 6.41194 18.8287 6.13896C18.7157 5.86598 18.5499 5.61794 18.341 5.40901C18.1321 5.20008 17.884 5.03434 17.611 4.92127C17.3381 4.8082 17.0455 4.75 16.75 4.75L6.79 4.79Z" fill="#000000"/>
</svg>