<?xml version="1.0" encoding="utf-8"?><!-- Uploaded to: SVG Repo, www.svgrepo.com, Generator: SVG Repo Mixer Tools -->
<svg width="800px" height="800px" viewBox="0 0 24 24" fill="none" xmlns="http://www.w3.org/2000/svg">
<path d="M8.79 8.73001C8.68986 8.73539 8.58966 8.72063 8.49532 8.6866C8.40098 8.65258 8.31442 8.59998 8.24077 8.53192C8.16711 8.46386 8.10785 8.38172 8.0665 8.29035C8.02514 8.19899 8.00253 8.10026 8 8.00001C7.99969 7.90023 8.02013 7.80147 8.06 7.71001C8.09406 7.61871 8.14883 7.53656 8.22 7.47001C8.36307 7.33425 8.55278 7.25858 8.75 7.25858C8.94723 7.25858 9.13693 7.33425 9.28 7.47001C9.42045 7.61063 9.49934 7.80126 9.49934 8.00001C9.49934 8.19876 9.42045 8.38938 9.28 8.53001C9.14543 8.65247 8.97184 8.72333 8.79 8.73001Z" fill="#000000"/>
<path d="M8.79 12.75C8.6882 12.7554 8.58635 12.7401 8.49069 12.7048C8.39503 12.6696 8.30756 12.6152 8.23362 12.545C8.15968 12.4748 8.10084 12.3903 8.06067 12.2966C8.0205 12.2029 7.99986 12.1019 8 12C7.99969 11.9002 8.02013 11.8015 8.06 11.71C8.09406 11.6187 8.14883 11.5365 8.22 11.47C8.30702 11.3834 8.41396 11.3195 8.53144 11.2839C8.64892 11.2483 8.77334 11.242 8.89379 11.2657C9.01424 11.2894 9.12704 11.3423 9.22227 11.4198C9.3175 11.4972 9.39227 11.5969 9.44 11.71C9.47988 11.8015 9.50031 11.9002 9.5 12C9.49983 12.1988 9.4207 12.3895 9.28 12.53C9.14837 12.6598 8.97445 12.7379 8.79 12.75Z" fill="#000000"/>
<path d="M15.17 12.75C14.9716 12.7477 14.7817 12.6689 14.64 12.53C14.4995 12.3894 14.4207 12.1988 14.4207 12C14.4207 11.8013 14.4995 11.6106 14.64 11.47C14.7831 11.3343 14.9728 11.2586 15.17 11.2586C15.3672 11.2586 15.5569 11.3343 15.7 11.47C15.772 11.5382 15.8294 11.6204 15.8686 11.7115C15.9078 11.8026 15.928 11.9008 15.928 12C15.928 12.0992 15.9078 12.1974 15.8686 12.2885C15.8294 12.3796 15.772 12.4618 15.7 12.53C15.5595 12.6707 15.3688 12.7498 15.17 12.75Z" fill="#000000"/>
<path d="M15.17 8.73001C14.9716 8.72771 14.7817 8.64889 14.64 8.51001C14.4995 8.36938 14.4207 8.17876 14.4207 7.98001C14.4207 7.78126 14.4995 7.59064 14.64 7.45001C14.7103 7.37866 14.7957 7.32398 14.89 7.29001C15.0256 7.23318 15.1751 7.21804 15.3194 7.24654C15.4637 7.27504 15.5962 7.34587 15.7 7.45001C15.772 7.51823 15.8294 7.6004 15.8686 7.69153C15.9078 7.78265 15.928 7.88081 15.928 7.98001C15.928 8.07921 15.9078 8.17737 15.8686 8.26849C15.8294 8.35962 15.772 8.44179 15.7 8.51001C15.5595 8.6507 15.3688 8.72983 15.17 8.73001Z" fill="#000000"/>
<path d="M8.79001 16.73C8.59116 16.7298 8.40052 16.6507 8.26001 16.51C8.18883 16.4435 8.13406 16.3613 8.10001 16.27C8.04098 16.1331 8.02467 15.9816 8.05322 15.8353C8.08177 15.6889 8.15384 15.5547 8.26001 15.45C8.40308 15.3142 8.59278 15.2386 8.79001 15.2386C8.98723 15.2386 9.17694 15.3142 9.32001 15.45C9.4607 15.5905 9.53983 15.7812 9.54001 15.98C9.5377 16.1784 9.45889 16.3683 9.32001 16.51C9.17949 16.6507 8.98885 16.7298 8.79001 16.73Z" fill="#000000"/>
<path d="M15.17 16.73C14.9716 16.7277 14.7817 16.6489 14.64 16.51C14.4995 16.3694 14.4207 16.1788 14.4207 15.98C14.4207 15.7813 14.4995 15.5906 14.64 15.45C14.7831 15.3142 14.9728 15.2386 15.17 15.2386C15.3672 15.2386 15.5569 15.3142 15.7 15.45C15.772 15.5182 15.8294 15.6004 15.8686 15.6915C15.9078 15.7826 15.928 15.8808 15.928 15.98C15.928 16.0792 15.9078 16.1774 15.8686 16.2685C15.8294 16.3596 15.772 16.4418 15.7 16.51C15.5595 16.6507 15.3688 16.7298 15.17 16.73Z" fill="#000000"/>
<path d="M17 20.77H7C6.50418 20.7727 6.01275 20.677 5.55416 20.4884C5.09556 20.2999 4.67891 20.0223 4.3283 19.6717C3.97769 19.3211 3.7001 18.9044 3.51158 18.4459C3.32306 17.9873 3.22735 17.4958 3.23 17V7C3.22735 6.50418 3.32306 6.01275 3.51158 5.55416C3.7001 5.09556 3.97769 4.67891 4.3283 4.3283C4.67891 3.97769 5.09556 3.7001 5.55416 3.51158C6.01275 3.32306 6.50418 3.22735 7 3.23H17C17.4958 3.22735 17.9873 3.32306 18.4459 3.51158C18.9044 3.7001 19.3211 3.97769 19.6717 4.3283C20.0223 4.67891 20.2999 5.09556 20.4884 5.55416C20.677 6.01275 20.7727 6.50418 20.77 7V17C20.7727 17.4958 20.677 17.9873 20.4884 18.4459C20.2999 18.9044 20.0223 19.3211 19.6717 19.6717C19.3211 20.0223 18.9044 20.2999 18.4459 20.4884C17.9873 20.677 17.4958 20.7727 17 20.77ZM7 4.73C6.70116 4.72734 6.40478 4.78423 6.12817 4.89736C5.85155 5.01049 5.60025 5.1776 5.38892 5.38892C5.1776 5.60025 5.01049 5.85155 4.89736 6.12817C4.78423 6.40478 4.72734 6.70116 4.73 7V17C4.72734 17.2988 4.78423 17.5952 4.89736 17.8718C5.01049 18.1485 5.1776 18.3998 5.38892 18.6111C5.60025 18.8224 5.85155 18.9895 6.12817 19.1026C6.40478 19.2158 6.70116 19.2727 7 19.27H17C17.2988 19.2727 17.5952 19.2158 17.8718 19.1026C18.1485 18.9895 18.3998 18.8224 18.6111 18.6111C18.8224 18.3998 18.9895 18.1485 19.1026 17.8718C19.2158 17.5952 19.2727 17.2988 19.27 17V7C19.2727 6.70116 19.2158 6.40478 19.1026 6.12817C18.9895 5.85155 18.8224 5.60025 18.6111 5.38892C18.3998 5.1776 18.1485 5.01049 17.8718 4.89736C17.5952 4.78423 17.2988 4.72734 17 4.73H7Z" fill="#000000"/>
</svg>